<?xml version="1.0" encoding="UTF-8" standalone="no"?><!DOCTYPE svg PUBLIC "-//W3C//DTD SVG 1.1//EN" "http://www.w3.org/Graphics/SVG/1.1/DTD/svg11.dtd"><svg width="100%" height="100%" viewBox="0 0 3219 3574" version="1.1" xmlns="http://www.w3.org/2000/svg" xmlns:xlink="http://www.w3.org/1999/xlink" xml:space="preserve" xmlns:serif="http://www.serif.com/" style="fill-rule:evenodd;clip-rule:evenodd;stroke-linejoin:round;stroke-miterlimit:2;"><path d="M3200.071,1604.667c-80,572.333 -424.392,1102.25 -915.004,1407.708c-490.608,305.458 -1118.125,380.708 -1667.042,199.917c236.975,-788.167 707.862,-1504.375 1337.567,-2034.375c-447.529,225.709 -800.108,609.125 -1065.233,1034.5c-265.125,425.375 -450.296,894.708 -633.983,1361c-174.392,-27.208 -256.375,-141.167 -256.375,-141.167c8.075,-72.25 144.629,-359.083 283.079,-630.625c-304.508,-431.125 -88.708,-1082.542 304.35,-1441.875c302.962,-277 813.813,-430.458 1190.071,-594.625c376.262,-164.125 759.308,-391.083 928.425,-765.125c388.129,428.25 574.104,1032.292 494.146,1604.667Z" style="fill-rule:nonzero;"/></svg>