<?xml version="1.0" encoding="UTF-8" standalone="no"?><!DOCTYPE svg PUBLIC "-//W3C//DTD SVG 1.1//EN" "http://www.w3.org/Graphics/SVG/1.1/DTD/svg11.dtd"><svg width="100%" height="100%" viewBox="0 0 3219 3574" version="1.1" xmlns="http://www.w3.org/2000/svg" xmlns:xlink="http://www.w3.org/1999/xlink" xml:space="preserve" xmlns:serif="http://www.serif.com/" style="fill-rule:evenodd;clip-rule:evenodd;stroke-linejoin:round;stroke-miterlimit:2;"><path d="M3200.071,1604.654c-80,572.337 -424.392,1102.266 -915.004,1407.708c-490.608,305.471 -1118.125,380.746 -1667.042,199.937c236.975,-788.171 707.862,-1504.396 1337.567,-2034.387c-447.529,225.708 -800.108,609.146 -1065.233,1034.504c-265.125,425.358 -450.296,894.7 -633.983,1361.025c-174.392,-27.208 -256.375,-141.208 -256.375,-141.208c8.075,-72.25 144.629,-359.059 283.079,-630.588c-304.508,-431.15 -88.708,-1082.541 304.35,-1441.879c302.962,-277 813.813,-430.475 1190.071,-594.633c376.262,-164.129 759.308,-391.092 928.425,-765.133c388.129,428.254 574.104,1032.283 494.146,1604.654Z" style="fill:#58b947;fill-rule:nonzero;"/></svg>